<svg width="226" height="86" viewBox="0 0 226 86" fill="none" xmlns="http://www.w3.org/2000/svg">
<path d="M2.13844 0.449929H8.55377V9.71652H15.6819V0.449929H22.0972V25.3984H15.6819V16.1318H8.55377V25.3984H2.13844V0.449929ZM25.3651 18.9831V9.71652L34.6316 0.449929H43.8982L46.0367 2.58837V16.1318L36.7701 25.3984H31.7804L25.3651 18.9831ZM39.6213 18.9831V6.86526H31.7804V18.9831H39.6213ZM48.8977 18.9831V6.86526L55.313 0.449929H67.0744V6.86526H55.313V18.9831H67.0744V25.3984H55.313L48.8977 18.9831ZM70.2526 0.449929H76.6679V9.71652H83.7961V0.449929H90.2114V25.3984H83.7961V16.1318H76.6679V25.3984H70.2526V0.449929ZM93.9069 18.9831H106.738V16.1318H96.0453L93.9069 13.9934V2.58837L96.0453 0.449929H113.153V6.86526H100.322V9.71652H111.014L113.153 11.855V23.26L111.014 25.3984H93.9069V18.9831ZM116.251 16.1318V2.58837L118.39 0.449929H134.428V6.86526H122.666V18.9831H134.428V25.3984H125.518L116.251 16.1318ZM137.601 0.449929H144.016V9.71652H151.145V0.449929H157.56V25.3984H151.145V16.1318H144.016V25.3984H137.601V0.449929ZM161.291 16.1318V0.449929H167.706V18.9831H174.834V0.449929H181.25V23.26L179.111 25.3984H170.558L161.291 16.1318ZM185.458 0.449929H191.874V18.9831H203.243V25.3984H185.458V0.449929ZM205.715 0.449929H224.213V6.86526H212.131V9.71652H218.974V16.1318H212.131V18.9831H224.213V25.3984H205.715V0.449929ZM2.13844 29.4499H20.1727V35.8653H8.55377V38.7165H15.0404V45.1318H8.55377V54.3984H2.13844V29.4499ZM22.6023 52.26V37.6473H29.0177V47.9831H36.1458V37.6473H42.5612V47.9831L36.1458 54.3984H24.7408L22.6023 52.26ZM22.6023 29.4499H29.0177V35.8653H22.6023V29.4499ZM36.1458 29.4499H42.5612V35.8653H36.1458V29.4499ZM46.4763 35.8653L52.8917 29.4499H59.307L65.7223 35.8653V42.9934L63.5839 45.1318L68.1815 54.3984H61.0534L56.4557 45.1318H52.8917V54.3984H46.4763V35.8653ZM59.307 38.7165V35.8653H52.8917V38.7165H59.307ZM81.0506 35.8653H74.4571V29.4499H94.0595V35.8653H87.466V54.3984H81.0506V35.8653ZM96.2091 47.9831V31.5884L98.3475 29.4499H114.707V35.8653H102.624V38.7165H109.467V45.1318H102.624V47.9831H114.707V54.3984H102.624L96.2091 47.9831ZM116.873 47.9831V35.8653L123.288 29.4499H135.049V35.8653H123.288V47.9831H135.049V54.3984H123.288L116.873 47.9831ZM138.228 29.4499H144.643V38.7165H151.771V29.4499H158.186V54.3984H151.771V45.1318H144.643V54.3984H138.228V29.4499ZM162.452 29.4499H168.867L175.996 41.6747V29.4499H182.411V54.3984H175.996L168.867 42.1737V54.3984H162.452V29.4499ZM186.677 29.4499H193.092V54.3984H186.677V29.4499ZM197.362 29.4499H203.777V38.7165H206.201L210.798 29.4499H217.927L211.725 41.9242L217.927 54.3984H210.798L206.201 45.1318H203.777V54.3984H197.362V29.4499ZM1.10486 76.9831H13.9355V74.1318H7.52019L1.10486 67.7165V64.8653L7.52019 58.4499H20.3509V64.8653H7.52019V67.7165H18.2124L20.3509 69.855V81.26L18.2124 83.3984H1.10486V76.9831ZM28.8773 64.8653H22.2838V58.4499H41.8862V64.8653H35.2927V83.3984H28.8773V64.8653ZM44.3209 81.26V58.4499H50.7362V76.9831H57.8644V58.4499H64.2797V76.9831L57.8644 83.3984H46.4594L44.3209 81.26ZM73.1846 64.8653H66.5911V58.4499H86.1935V64.8653H79.5999V83.3984H73.1846V64.8653ZM93.859 64.8653H87.2655V58.4499H106.868V64.8653H100.274V83.3984H93.859V64.8653ZM106.562 74.1318V67.7165L115.828 58.4499H126.521V64.8653H112.977V76.9831H120.105V69.1065H126.521V81.26L124.382 83.3984H115.828L106.562 74.1318ZM130.079 64.8653L136.494 58.4499H147.899L150.038 60.5884V83.3984H143.622V74.1318H136.494V83.3984H130.079V64.8653ZM143.622 67.7165V64.8653H136.494V67.7165H143.622ZM154.06 64.8653L160.475 58.4499H166.89L173.306 64.8653V71.9934L171.167 74.1318L175.765 83.3984H168.637L164.039 74.1318H160.475V83.3984H154.06V64.8653ZM166.89 67.7165V64.8653H160.475V67.7165H166.89ZM182.021 64.8653H175.428V58.4499H195.03V64.8653H188.436V83.3984H182.021V64.8653Z" fill="#E42832"/>
</svg>
